<?xml version="1.0" standalone="no"?><!DOCTYPE svg PUBLIC "-//W3C//DTD SVG 1.1//EN" "http://www.w3.org/Graphics/SVG/1.1/DTD/svg11.dtd"><svg t="1615025445562" class="icon" viewBox="0 0 1024 1024" version="1.1" xmlns="http://www.w3.org/2000/svg" p-id="937" xmlns:xlink="http://www.w3.org/1999/xlink" width="200" height="200"><defs><style type="text/css"></style></defs><path d="M512.64 959.808c-246.912 0-448-200.96-448-448s201.088-448 448-448c247.04 0 448 200.96 448 448s-200.832 448-448 448z m0-806.4a358.848 358.848 0 0 0-358.4 358.4c0 197.568 160.832 358.4 358.4 358.4 197.632 0 358.4-160.832 358.4-358.4 0-197.632-160.64-358.4-358.4-358.4z" p-id="938"></path><path d="M700.032 576.768H512.64a44.8 44.8 0 0 1-44.8-44.48l-1.92-277.76a44.8 44.8 0 0 1 44.544-45.12h0.256a44.8 44.8 0 0 1 44.8 44.48l1.6 233.28h142.848a44.8 44.8 0 0 1 0 89.6z" p-id="939"></path></svg>